<svg version="1.2" xmlns="http://www.w3.org/2000/svg" viewBox="0 0 177 45" width="300" height="76"><style>.a{fill:#8dce97}.b{fill:#213e26}</style><path class="a" d="m23.1 0.2c0 0 3.7 9.6-12.2 16.2-8.6 3.5-15.3 12.6-7.4 26.6 0.7-6.3 3.5-20.1 15.6-23.2 0 0-11.2 4.4-12.2 24.8 5.7 0.9 19.3 1.5 23.3-11.1 5.4-16.6-7.1-33.3-7.1-33.3z"/><path class="a" d="m6.9 44.5c12.3-5.2 21.2-17.5 22.4-32.1-2.5-7.3-6.2-12.2-6.2-12.2 0 0 3.7 9.6-12.2 16.2-8.6 3.5-15.3 12.6-7.4 26.6 0.7-6.3 3.5-20.1 15.6-23.2 0 0-11.2 4.4-12.2 24.7z"/><path class="a" d="m2.3 16.7c0.7 0 1.2-0.6 1.2-1.2 0-0.7-0.5-1.3-1.2-1.3-0.6 0-1.1 0.6-1.1 1.3 0 0.6 0.5 1.2 1.1 1.2z"/><path class="a" d="m5.9 15.1c0.5 0 0.9-0.4 0.9-0.9 0-0.5-0.4-0.8-0.9-0.8-0.4 0-0.8 0.3-0.8 0.8 0 0.5 0.4 0.9 0.8 0.9z"/><path class="a" d="m5.2 8.1c1.1 0 2-1 2-2.2 0-1.2-0.9-2.2-2-2.2-1.1 0-2.1 1-2.1 2.2 0 1.2 1 2.2 2.1 2.2z"/><path class="a" d="m11.5 11.6c0.4 0 0.7-0.3 0.7-0.7 0-0.4-0.3-0.7-0.7-0.7-0.4 0-0.6 0.3-0.6 0.7 0 0.4 0.2 0.7 0.6 0.7z"/><path class="a" d="m17 9c1 0 1.9-0.9 1.9-2 0-1.2-0.9-2.1-1.9-2.1-1 0-1.9 0.9-1.9 2.1 0 1.1 0.9 2 1.9 2z"/><path class="b" d="m50.7 40.6q-2.7 0-5-1.3-2.2-1.2-3.5-3.5-1.2-2.3-1.2-5.1 0-2.8 1.2-5.1 1.3-2.2 3.6-3.5 2.2-1.3 4.9-1.3 2.1 0 3.9 0.7 1.7 0.8 2.9 2.1l-1.2 1.4q-2.2-2.4-5.5-2.4-2.2 0-4 1.1-1.8 1.1-2.9 2.9-1 1.8-1 4.1 0 2.3 1 4.1 1.1 1.9 2.9 2.9 1.8 1.1 4 1.1 3.3 0 5.5-2.4l1.2 1.4q-1.2 1.3-3 2.1-1.7 0.7-3.8 0.7z"/><path fill-rule="evenodd" class="b" d="m66 25.7q2.7 0 4.2 1.4 1.5 1.5 1.5 4.3v9.1h-1.8v-2.3q-0.7 1.1-1.9 1.7-1.3 0.7-3 0.7-2.3 0-3.7-1.2-1.3-1.1-1.3-3.1 0-1.8 1.2-3 1.3-1.1 4.1-1.1h4.5v-0.9q0-1.9-1-2.9-1-1-3-1-1.3 0-2.5 0.5-1.3 0.4-2.1 1.3l-0.9-1.5q1.1-1 2.6-1.5 1.5-0.5 3.1-0.5zm-0.7 13.3q1.6 0 2.8-0.7 1.1-0.8 1.7-2.2v-2.4h-4.4q-3.6 0-3.6 2.6 0 1.3 0.9 2 1 0.7 2.6 0.7z"/><path class="b" d="m80.5 40.6q-1.7 0-3.2-0.5-1.6-0.5-2.5-1.3l0.9-1.6q0.9 0.7 2.2 1.2 1.3 0.5 2.8 0.5 1.9 0 2.8-0.6 0.9-0.7 0.9-1.8 0-0.8-0.5-1.3-0.5-0.5-1.3-0.7-0.8-0.2-2-0.4-1.7-0.4-2.8-0.7-1-0.4-1.7-1.2-0.8-0.8-0.8-2.3 0-1.9 1.5-3 1.5-1.2 4.1-1.2 1.3 0 2.7 0.4 1.3 0.4 2.2 1l-0.8 1.6q-1.7-1.3-4.1-1.3-1.8 0-2.8 0.7-0.9 0.6-0.9 1.7 0 0.9 0.5 1.4 0.6 0.5 1.3 0.7 0.8 0.2 2.2 0.5 1.6 0.3 2.6 0.6 1 0.4 1.8 1.2 0.7 0.8 0.7 2.2 0 1.9-1.6 3.1-1.5 1.1-4.2 1.1z"/><path fill-rule="evenodd" class="b" d="m94.6 25.7q2.8 0 4.2 1.4 1.5 1.5 1.5 4.3v9.1h-1.8v-2.3q-0.6 1.1-1.9 1.7-1.2 0.7-2.9 0.7-2.3 0-3.7-1.2-1.4-1.1-1.4-3.1 0-1.8 1.3-3 1.3-1.1 4.1-1.1h4.4v-0.9q0-1.9-1-2.9-1-1-2.9-1-1.4 0-2.6 0.5-1.2 0.4-2.1 1.3l-0.8-1.5q1-1 2.5-1.5 1.5-0.5 3.1-0.5zm-0.6 13.3q1.6 0 2.7-0.7 1.2-0.8 1.7-2.2v-2.4h-4.4q-3.5 0-3.5 2.6 0 1.3 0.9 2 0.9 0.7 2.6 0.7z"/><path class="b" d="m113.7 40.5l5.5-14.4c0.4-0.9 0.6-1.7 0.6-2.3 0-1.4-0.8-3.1-3-3.1-1.6 0-3 1-3 2.7 0 1.6 1.2 2.8 2.7 2.8 1.6 0 2.3-1.2 2.3-2.4 0-1.1-0.6-1.7-1.4-1.9q-0.2-0.1-0.2-0.3c0-0.2 0.1-0.3 0.2-0.3q0.2 0 0.3 0.1c0.8 0.2 1.6 1 1.6 2.4 0 0.9-0.5 2.2-1 3.3l-3.2 8.1h-0.4l-4.8-13.8h2.1v-0.4h-9.4v0.4h1.5l6 17c0.5 1.3 1.2 2.1 2.5 2.1z"/><path fill-rule="evenodd" class="b" d="m133.1 36.1l0.1-0.3 0.4 0.1c-0.5 3-2.4 4.8-5.6 4.8-4.6 0-7.4-2.3-7.4-6.9 0-4.3 2.7-6.9 6.9-6.9 3.1 0 6.1 1 6.1 4.2 0 2.9-2.8 3.8-5.9 3.8h-1.7c0 3.1 0.5 5.2 2.8 5.2 2.1 0 3.8-1.6 4.3-4zm-7.1-1.7h0.6c1.7 0 2.1-1.3 2.1-3.3 0-3-0.5-3.7-1.2-3.7-1 0-1.5 0.7-1.5 5z"/><path class="b" d="m141.2 29.1v-2.2c-1.8 0.4-3.5 0.5-5.3 0.5h-1.6v0.4h1.9v12h-1.7v0.4h8.6v-0.4h-2v-5.6c0-4.4 1-6.8 3.3-6.8 0.9 0 1.5 0.5 1.8 0.9 0.1 0.1 0.1 0.2 0.1 0.4 0 0.1-0.1 0.2-0.2 0.2-0.2 0-0.3-0.2-0.4-0.4-0.2-0.2-0.6-0.5-1.2-0.5-1 0-1.8 0.8-1.8 1.9 0 1.3 1 2.1 2.1 2.1 1.4 0 2.3-1.2 2.3-2.5 0-1.4-1.2-2.6-2.8-2.6-1.4 0-2.4 0.9-3 2.2z"/><path fill-rule="evenodd" class="b" d="m161.4 39.8h1.7v0.4h-6.7v-1.9h-0.1c-0.7 1.8-1.9 2.4-3.8 2.4-3.2 0-4.8-3.2-4.8-6.9 0-4 1.4-6.9 5.2-6.9 1.7 0 2.8 0.6 3.4 1.9h0.1v-7.4h-1.9v-0.4h1.6c1.8 0 3.5-0.2 5.3-0.6zm-4.9-6.7c0-3.4-1-5.1-2-5.1-1 0-1.4 1.9-1.4 5.9 0 3.1 0.2 5.7 1.4 5.7 1.4 0 2-3.2 2-5.7z"/><path fill-rule="evenodd" class="b" d="m176.5 36.1v-0.3l0.5 0.1c-0.5 3-2.5 4.8-5.6 4.8-4.7 0-7.4-2.3-7.4-6.9 0-4.3 2.6-6.9 6.9-6.9 3 0 6 1 6 4.2 0 2.9-2.7 3.8-5.8 3.8h-1.7c0 3.1 0.5 5.2 2.8 5.2 2.1 0 3.8-1.6 4.3-4zm-7.2-1.7h0.7c1.7 0 2.1-1.3 2.1-3.3 0-3-0.5-3.7-1.2-3.7-1 0-1.6 0.7-1.6 5z"/></svg>